<?xml version="1.0" encoding="utf-8"?>
<!-- Generator: Adobe Illustrator 16.0.0, SVG Export Plug-In . SVG Version: 6.00 Build 0)  -->
<!DOCTYPE svg PUBLIC "-//W3C//DTD SVG 1.1//EN" "http://www.w3.org/Graphics/SVG/1.1/DTD/svg11.dtd">
<svg version="1.1" id="Layer_1" xmlns="http://www.w3.org/2000/svg" xmlns:xlink="http://www.w3.org/1999/xlink" x="0px" y="0px"
	 width="1920px" height="1080px" viewBox="0 0 1920 1080" enable-background="new 0 0 1920 1080" xml:space="preserve">
<g>
	<path fill="#FFFFFF" d="M1903.037,747.314c0,84.366-68.439,152.738-152.742,152.738H159.644
		c-84.366,0-152.734-68.372-152.734-152.738V280.681c0-84.352,68.368-152.741,152.734-152.741h1590.651
		c84.303,0,152.742,68.39,152.742,152.741V747.314z"/>
	<path fill="#192023" d="M1903.037,747.314c0,84.366-68.439,152.738-152.742,152.738H759.953
		c-84.366,0-152.734-68.372-152.734-152.738V280.681c0-84.352,68.368-152.741,152.734-152.741h990.342
		c84.303,0,152.742,68.39,152.742,152.741V747.314z"/>
	<path fill="#192023" d="M114.304,313.904h128.097c43.695,0,75.591,8.485,95.708,25.416c20.032,16.945,30.08,42.977,30.08,78.148
		v18.007c0,23.138-4.484,42.015-13.495,56.575c-8.997,14.596-22.771,25.084-41.343,31.545v1.277
		c42.229,11.985,63.333,43.291,63.333,93.902v38.582c0,34.731-10.927,61.191-32.817,79.431
		c-21.884,18.227-53.865,27.323-96.095,27.323H114.304V313.904z M232.389,497.217c16.963,0,29.693-3.651,38.16-10.949
		c8.468-7.281,12.765-19.524,12.765-36.673v-25.052c0-16.302-3.482-28.098-10.434-35.375c-6.973-7.302-17.907-10.967-32.782-10.967
		h-40.914v119.015H232.389z M247.771,699.793c14.94,0,25.996-3.314,33.197-9.962c7.202-6.633,10.871-18.104,10.871-34.434v-39.2
		c0-20.598-4.327-34.843-12.823-42.756c-8.468-7.945-22.47-11.942-42.015-11.942h-37.817v138.294H247.771z"/>
	<rect x="426.094" y="313.904" fill="#192023" width="84.902" height="450.207"/>
	<rect x="429.941" y="127.94" fill="#192023" width="77.179" height="155.73"/>
	<path fill="#FFFFFF" d="M753.452,741.429c-18.05-19.33-27.104-46.623-27.104-81.938V427.623c0-35.278,9.054-62.59,27.104-81.906
		c18.043-19.33,44.146-29.013,78.123-29.013c34.012,0,60.072,9.683,78.151,29.013c18.086,19.316,27.112,46.627,27.112,81.906V659.49
		c0,35.315-9.025,62.608-27.112,81.938c-18.079,19.316-44.139,28.982-78.151,28.982
		C797.598,770.411,771.495,760.745,753.452,741.429z M752.444,229.108h61.495V293.4h-61.495V229.108z M867.489,663.915V423.217
		c0-28.981-11.971-43.488-35.915-43.488c-23.986,0-35.886,14.507-35.886,43.488v240.698c0,28.999,11.9,43.487,35.886,43.487
		C855.518,707.402,867.489,692.914,867.489,663.915z M849.203,229.108h61.774V293.4h-61.774V229.108z"/>
	<path fill="#FFFFFF" d="M1020.682,702.354l128.482-316.306h-122.231v-63.026h196.607v61.739l-128.584,316.31h128.584v63.04
		h-202.858V702.354z"/>
	<path fill="#FFFFFF" d="M1313.67,323.021h189.006v63.026h-119.737v116.558h95.165v63.041h-95.165V701.07h119.737v63.04H1313.67
		V323.021z"/>
	<path fill="#FFFFFF" d="M1647.637,386.047h-72.495v-63.026h214.273v63.026h-72.502v514.005h-69.276V386.047z"/>
</g>
</svg>
