<svg width="1021" height="574" viewBox="0 0 1021 574" fill="none" xmlns="http://www.w3.org/2000/svg">
<path d="M946 396.894C946 441.694 911.999 478 870.117 478H79.8786C37.9654 478 4 441.694 4 396.894V149.107C4 104.315 37.9654 68 79.8786 68H870.117C911.999 68 946 104.316 946 149.107V396.894Z" fill="#F7FBF2"/>
<path d="M936 390.246C936 432.642 904.1 467 864.805 467H403.192C363.867 467 332 432.642 332 390.246V155.755C332 113.367 363.867 79 403.192 79H864.805C904.1 79 936 113.367 936 155.755V390.246Z" fill="#21241C"/>
<path d="M60.7836 166.834H128.902C152.138 166.834 169.099 171.344 179.797 180.342C190.449 189.348 195.792 203.184 195.792 221.876V231.447C195.792 243.744 193.408 253.777 188.616 261.515C183.832 269.273 176.507 274.847 166.631 278.281V278.96C189.087 285.329 200.31 301.968 200.31 328.867V349.372C200.31 367.831 194.499 381.894 182.858 391.588C171.221 401.276 154.215 406.11 131.758 406.11H60.7836V166.834ZM123.578 264.261C132.598 264.261 139.368 262.321 143.87 258.442C148.373 254.573 150.658 248.066 150.658 238.951V225.637C150.658 216.972 148.807 210.703 145.11 206.835C141.402 202.955 135.587 201.007 127.677 201.007H105.92V264.261H123.578V264.261ZM131.757 371.927C139.702 371.927 145.581 370.166 149.411 366.632C153.24 363.107 155.192 357.01 155.192 348.331V327.497C155.192 316.55 152.891 308.979 148.373 304.773C143.87 300.55 136.424 298.426 126.03 298.426H105.92V371.927H131.757Z" fill="#21241C"/>
<path d="M271.733 166.834H226.584V406.111H271.733V166.834Z" fill="#21241C"/>
<path d="M269.672 67.9976H228.63V150.765H269.672V67.9976Z" fill="#21241C"/>
<path d="M390.664 394.056C381.065 383.782 376.251 369.276 376.251 350.507V227.274C376.251 208.524 381.065 194.008 390.664 183.742C400.259 173.469 414.139 168.322 432.207 168.322C450.294 168.322 464.152 173.469 473.766 183.742C483.383 194.008 488.183 208.523 488.183 227.274V350.507C488.183 369.276 483.384 383.782 473.766 394.055C464.152 404.321 450.294 409.459 432.207 409.459C414.139 409.459 400.259 404.322 390.664 394.056ZM390.128 121.767H422.829V155.937H390.128V121.767ZM451.305 352.858V224.932C451.305 209.529 444.94 201.819 432.207 201.819C419.452 201.819 413.124 209.529 413.124 224.932V352.858C413.124 368.271 419.452 375.971 432.207 375.971C444.94 375.971 451.305 368.271 451.305 352.858ZM441.581 121.767H474.431V155.937H441.581V121.767Z" fill="#F7FBF2"/>
<path d="M514 373.288L582.323 205.177H517.324V171.68H621.874V204.493L553.497 372.606H621.874V406.111H514V373.288Z" fill="#F7FBF2"/>
<path d="M648 171.68H748.508V205.177H684.835V267.125H735.441V300.63H684.835V372.606H748.508V406.11H648V171.68Z" fill="#F7FBF2"/>
<path d="M813.551 205.177H775V171.68H888.944V205.177H850.39V478.361H813.551V205.177Z" fill="#F7FBF2"/>
</svg>
